<?xml version="1.0" encoding="UTF-8"?><svg id="Layer_1" xmlns="http://www.w3.org/2000/svg" viewBox="0 0 16 16"><path d="M.7,19.1c-.33-.39-.92-.67-1.24-.67-.68,0-1.02,.29-1.68,.78-.32,.22-.66,.38-.78,.38-.04,0-.24-.15-.4-.34-.13-.15-.26-.32-.26-.46,0-.05,.02-.13,.06-.23,.02-.05,.05-.11,.07-.17,.13-.32,.22-.67,.22-1.09,0-1.03-.5-2.02-1.34-2.52-.12-.07-.84-.51-1.99-.51-.88,0-1.69,.29-2.3,.84-.39,.32-.67,.91-.67,1.23,0,.68,.29,1.02,.78,1.68,.22,.32,.38,.73,.38,.9s-.39,.68-.71,.68-.46-.16-.78-.38c-.66-.49-1-.78-1.68-.78-.32,0-.91,.28-1.24,.67-.53,.61-.83,1.42-.83,2.3,0,1.15,.44,1.87,.51,1.99,.5,.84,1.48,1.34,2.52,1.34,.73,0,1.25-.24,1.77-.6,.18-.15,.33-.12,.36-.04,.07,.02,.11,.17-.04,.36-.35,.52-.6,1.05-.6,1.77,0,1.03,.5,2.02,1.34,2.52,.12,.07,.84,.51,1.99,.51,.88,0,1.69-.29,2.29-.84,.4-.32,.68-.91,.68-1.23,0-.68-.29-1.02-.78-1.68-.22-.32-.38-.66-.38-.78,0-.05,.17-.27,.36-.44,.11-.09,.22-.16,.33-.19,.01,0,.02,.01,.02,.02,.26,.17,.51,.32,.79,.43,.29,.11,.61,.17,.98,.17,1.05,0,2.02-.5,2.52-1.34,.07-.12,.51-.84,.51-1.99,0-.88-.29-1.69-.83-2.3Zm-3.21,1.14c-.11,.36-.18,.74-.26,1.35-.01,.11-.11,.23-.19,.23s-.13-.09-.17-.38c-.07-.61-.22-.67-.95-.71-.19-.01-1.5-.01-1.64,.02-.06,.01-.11,.12-.11,.15v2.88c0,1.36,0,2.47,.05,2.91,.06,.53,.12,.67,.85,.84,.15,.02,.32,.12,.32,.21,0,.13-.22,.15-.33,.15-.1,0-.83-.06-1.34-.06-.6,0-1.19,.07-1.34,.07-.24,0-.35-.06-.35-.13,0-.09,.11-.18,.22-.21,.83-.18,.85-.38,.88-1.26,.02-.69,.09-3.09,.09-3.99v-1.4c0-.09-.06-.15-.1-.15-.23-.04-1.26-.06-1.45-.06-.45,0-.69,.07-.88,.27-.04,.04-.18,.23-.38,.61-.11,.26-.18,.24-.23,.24-.07,0-.11-.16-.11-.28,0-.22,.22-.86,.22-1.56,0-.07,.11-.18,.17-.18s.06,.07,.19,.18c.04,.04,.22,.22,.4,.22,.3,.04,1.24,.07,2.74,.07,.62,0,2.21-.01,2.69-.02,.43-.02,.64-.09,.8-.21,.09-.05,.12-.07,.17-.07s.1,.11,.04,.27Z"/><path d="M14.12,5.43c-.64-.46-1.7-.69-2.15-.69-.22,0-.48,.03-.74,.08,.17-.4,.26-.83,.26-1.25,0-1.03-.54-1.9-1.32-2.42-.45-.28-1.22-.51-1.91-.51-1.2,0-2.2,.64-2.84,1.59-.46,.64-.69,1.71-.69,2.15,0,.11,.01,.24,.02,.38-.1-.01-.21-.02-.3-.02-.44,0-1.51,.23-2.15,.69-.95,.64-1.59,1.64-1.59,2.84,0,.69,.23,1.46,.51,1.92,.52,.77,1.39,1.31,2.42,1.31,.45,0,.92-.11,1.35-.3-.2,.43-.3,.9-.3,1.34,0,1.04,.54,1.91,1.31,2.43,.46,.28,1.23,.51,1.92,.51,1.2,0,2.2-.64,2.84-1.59,.46-.64,.69-1.71,.69-2.15,0-.16-.02-.36-.05-.55,.44,.2,.92,.31,1.38,.31,1.03,0,1.9-.54,2.42-1.31,.28-.46,.51-1.23,.51-1.92,0-1.2-.64-2.2-1.59-2.84ZM5.86,2.58c.5-.45,1.17-.69,1.89-.69,.95,0,1.54,.36,1.64,.42,.69,.41,1.1,1.22,1.1,2.07,0,.35-.07,.64-.18,.9-.02,.05-.04,.1-.06,.14-.02,.06-.04,.12-.05,.16-.48-.4-1.16-.64-2.01-.64-.6,0-1.4,.24-1.95,.63-.05-.17-.15-.41-.29-.6-.4-.54-.64-.82-.64-1.38,0-.26,.23-.75,.55-1.01Zm-1.16,5.78c0,.82,.3,1.45,.76,1.9-.3,.15-.62,.24-1.01,.24-.85,0-1.66-.41-2.07-1.1-.06-.1-.42-.69-.42-1.64,0-.72,.24-1.39,.68-1.89,.27-.32,.76-.55,1.02-.55,.56,0,.84,.24,1.38,.64,.18,.13,.3,.23,.44,.28-.47,.54-.78,1.25-.78,2.12Zm9.34,1.04c-.41,.69-1.21,1.1-2.07,1.1-.31,0-.57-.05-.81-.14-.23-.09-1.11,.53-.93,.79,.4,.54,.64,.82,.64,1.38,0,.26-.23,.75-.56,1.01-.49,.45-1.16,.69-1.88,.69-.95,0-1.54-.36-1.64-.42-.69-.41-1.1-1.22-1.1-2.07,0-.43,.1-.77,.27-1.09,.49,.29,1.07,.44,1.62,.44,.64,0,1.38-.09,2-.59,.05-.05,.18-.14,.18-.29,0-.07-.14-.13-.2-.1-.37,.2-1.08,.43-1.54,.43-1.65,0-2.52-1.01-2.52-2.31,0-1.49,1.14-2.82,2.75-2.82,1.19,0,2.12,.68,2.12,1.92,0,.73-.41,1.56-1.09,1.6-.18,.01-.3-.17-.25-.36,.09-.55,.49-1.74,.58-2.04,.02-.04-.01-.14-.05-.17-.12-.1-.35-.18-.54-.18-.08,0-.17,.07-.2,.11l-.11,.23s-.06,.03-.1,.01c-.06-.04-.26-.08-.34-.08-.28,0-.84,.45-1.3,1.02-.54,.64-.74,1.26-.74,1.52,0,.32,.26,.55,.4,.55,.35,0,1.05-.47,1.46-.97,.03-.04,.09-.03,.07,.03l-.09,.37c-.02,.09-.01,.16-.01,.22,0,.18,.2,.34,.66,.34,1.17,0,2.28-.99,2.28-2.23,0-.37-.08-.72-.24-1.03,.11-.02,.38-.14,.62-.31,.54-.4,.82-.64,1.38-.64,.26,0,.75,.23,1.02,.55,.44,.5,.68,1.17,.68,1.89,0,.95-.36,1.54-.42,1.64Zm-5.61-2.21s.05,.05,.03,.1c-.12,.27-.3,.69-.57,1-.26,.31-.44,.36-.51,.36-.11,0-.15-.12-.15-.31,0-.36,.19-.84,.35-1.01,.17-.18,.26-.27,.49-.27,.1,0,.29,.05,.36,.13Z"/></svg>